<svg width="25" height="27" viewBox="0 0 25 27" fill="none" xmlns="http://www.w3.org/2000/svg">
<g clip-path="url(#clip0_0_6)">
<path d="M9.61538 1.92857C9.08453 1.92857 8.63131 2.11691 8.25571 2.49358C7.88011 2.87026 7.69231 3.32478 7.69231 3.85714V17.3571L5.42368 14.3136C5.01302 13.7712 4.47716 13.5 3.81611 13.5C3.29527 13.5 2.84956 13.6908 2.47897 14.0725C2.10837 14.4542 1.92308 14.9062 1.92308 15.4286C1.92308 15.8605 2.05329 16.2472 2.3137 16.5887L8.08293 24.303C8.46354 24.8153 8.97436 25.0714 9.61538 25.0714H20.4026C20.623 25.0714 20.8208 25.0036 20.9961 24.868C21.1714 24.7324 21.2841 24.5592 21.3341 24.3482L22.7163 18.8036C22.9567 17.8393 23.0769 16.865 23.0769 15.8806V12.611C23.0769 12.1992 22.9367 11.8426 22.6562 11.5413C22.3758 11.24 22.0353 11.0893 21.6346 11.0893C21.234 11.0893 20.8934 11.2299 20.613 11.5112C20.3325 11.7924 20.1923 12.1339 20.1923 12.5357H19.7115V11.6166C19.7115 11.1345 19.5513 10.7252 19.2308 10.3887C18.9103 10.0522 18.5096 9.88393 18.0288 9.88393C17.5681 9.88393 17.1725 10.0497 16.8419 10.3811C16.5114 10.7126 16.3462 11.1094 16.3462 11.5714V12.5357H15.8654V11.1797C15.8654 10.6272 15.6801 10.1526 15.3095 9.75586C14.9389 9.3591 14.4832 9.16071 13.9423 9.16071C13.4115 9.16071 12.9582 9.34905 12.5826 9.72573C12.207 10.1024 12.0192 10.5569 12.0192 11.0893V12.5357H11.5385V3.94754C11.5385 3.39509 11.3532 2.92048 10.9826 2.52372C10.612 2.12695 10.1562 1.92857 9.61538 1.92857ZM9.61538 0C10.6871 0 11.5961 0.38923 12.3422 1.16769C13.0884 1.94615 13.4615 2.87277 13.4615 3.94754V7.26228C13.6819 7.24219 13.8421 7.23214 13.9423 7.23214C14.9339 7.23214 15.8003 7.57868 16.5415 8.27176C17.0122 8.06083 17.508 7.95536 18.0288 7.95536C19.1607 7.95536 20.0821 8.3923 20.7933 9.26618C21.0637 9.19587 21.3442 9.16071 21.6346 9.16071C22.5761 9.16071 23.3724 9.49972 24.0234 10.1777C24.6745 10.8557 25 11.6669 25 12.611V15.8806C25 17.0458 24.8598 18.1758 24.5793 19.2706L23.1971 24.8153C23.0369 25.4581 22.6963 25.983 22.1755 26.3898C21.6546 26.7966 21.0637 27 20.4026 27H9.61538C9.01442 27 8.44101 26.8619 7.89513 26.5857C7.34926 26.3094 6.89603 25.9353 6.53546 25.4632L0.766226 17.7489C0.255409 17.0658 0 16.2924 0 15.4286C0 14.3739 0.373097 13.4674 1.11929 12.709C1.86548 11.9506 2.76442 11.5714 3.81611 11.5714C4.52724 11.5714 5.17829 11.7472 5.76923 12.0988V3.85714C5.76923 2.79241 6.14483 1.88337 6.89603 1.13002C7.64724 0.376674 8.55369 0 9.61538 0ZM11.5385 21.2143V15.4286H11.0577V21.2143H11.5385ZM15.3846 21.2143V15.4286H14.9038V21.2143H15.3846ZM19.2308 21.2143V15.4286H18.75V21.2143H19.2308Z" fill="black"/>
</g>
<defs>
<clipPath id="clip0_0_6">
<rect width="25" height="27" fill="white"/>
</clipPath>
</defs>
</svg>
